#!OML:ASF I:\Actors\actors\Patient Classification 1\Patient 1\Session 1\Subject1.ASF
:FULLY-SPECIFIED
:DEGREES
1524
root 0.188426 17.6824 9.90881 16.0338 -5.51051 -9.16505
lowerback 3.27544 0.859835 3.85609
upperback -15.3282 1.60469 -0.343485
thorax -19.3104 0.0969467 -2.8464
lowerneck 2.10159 -20.6982 -13.6194
upperneck -8.83684 -28.9209 35.7599
head 4.90039 -14.8227 10.5581
rclavicle 1.35174e-014 2.22639e-014
rhumerus 100.497 -11.6516 -68.0839
rradius 77.5208
rwrist -53.3283
rhand 82.1017 322.165
rfingers 7.12502
rthumb 65.0432 -303.354
lclavicle 1.35174e-014 2.22639e-014
lhumerus -60.6492 -51.8703 125.549
lradius 78.5504
lwrist 5.20844
lhand -0.518203 -14.9178
lfingers 7.12502
lthumb 25.0939 13.4534
rfemur -6.70194 23.4541 23.252
rtibia 2.33269
rfoot -13.1197 -22.2736
rtoes 3.21919
lfemur 8.32839 -55.3803 -16.499
ltibia -3.71214
lfoot -53.1054 62.1184
ltoes 27.1016
1525
root 0.198076 17.6654 9.87868 16.5754 -5.83125 -9.31457
lowerback 2.92507 0.98899 4.06384
upperback -15.508 1.79119 -0.376768
thorax -19.2955 0.145256 -3.0285
lowerneck 1.97714 -20.7727 -13.5038
upperneck -8.66721 -29.0545 35.6422
head 4.95796 -14.8611 10.4563
rclavicle 2.38542e-015 -6.36111e-015
rhumerus 100.339 -11.6419 -68.1783
rradius 77.4735
rwrist -53.2696
rhand 82.1316 322.334
rfingers 7.12502
rthumb 65.0401 -303.141
lclavicle 2.38542e-015 -6.36111e-015
lhumerus -60.6192 -51.8325 125.422
lradius 78.5023
lwrist 5.02758
lhand -0.586722 -15.0077
lfingers 7.12502
lthumb 25.0283 13.3726
rfemur -7.74301 22.7022 22.9714
rtibia 2.64773
rfoot -12.9696 -21.2046
rtoes 2.41091
lfemur 7.35998 -55.6593 -15.6859
ltibia -3.58073
lfoot -54.4505 62.2876
ltoes 27.6458
1526
root 0.169632 17.6857 9.88306 15.7141 -5.31734 -9.24837
lowerback 3.43582 0.743613 3.70478
upperback -15.2262 1.4368 -0.286848
thorax -19.2979 0.0509321 -2.66668
lowerneck 2.38728 -20.6068 -13.6364
upperneck -9.03037 -28.798 36.1172
head 4.84589 -14.8144 10.7433
rclavicle 1.98785e-015 -1.43125e-014
rhumerus 100.153 -11.6014 -68.2873
rradius 77.446
rwrist -53.23
rhand 82.2776 322.519
rfingers 7.12502
rthumb 64.9803 -302.735
lclavicle 1.98785e-015 -1.43125e-014
lhumerus -60.4941 -51.722 125.247
lradius 78.4299
lwrist 4.81857
lhand -0.689003 -15.0241
lfingers 7.12502
lthumb 24.9303 13.3698
rfemur -6.18545 23.7005 23.6156
rtibia 2.0076
rfoot -13.1097 -22.6681
rtoes 2.69053
lfemur 9.00753 -55.7628 -16.8229
ltibia -3.84202
lfoot -53.41 62.3845
ltoes 26.9578
1527
root 0.185816 17.6614 9.84735 16.4293 -5.64111 -9.39711
lowerback 2.98902 0.893914 4.01779
upperback -15.4596 1.65954 -0.346822
thorax -19.2865 0.0960519 -2.94437
lowerneck 2.70169 -20.5595 -13.7403
upperneck -9.30392 -28.721 36.4681
head 4.78677 -14.8347 10.9294
rclavicle -7.55382e-015 -9.54166e-015
rhumerus 99.9863 -11.5682 -68.4126
rradius 77.3281
rwrist -53.1932
rhand 82.4107 322.78
rfingers 7.12502
rthumb 64.9252 -302.278
lclavicle -7.55382e-015 -9.54166e-015
lhumerus -60.333 -51.6813 125.044
lradius 78.399
lwrist 4.84673
lhand -0.518335 -15.1107
lfingers 7.12502
lthumb 25.0938 13.2605
rfemur -7.55286 22.6466 23.1942
rtibia 2.45136
rfoot -12.8863 -21.2946
rtoes 1.39147
lfemur 7.50494 -55.9988 -15.674
ltibia -3.49159
lfoot -55.0919 62.317
ltoes 27.8645
1528
root 0.16345 17.6774 9.84623 15.7162 -5.29212 -9.18506
lowerback 3.39424 0.715204 3.57958
upperback -15.2311 1.36879 -0.348824
thorax -19.2798 0.0317369 -2.65528
lowerneck 2.52619 -20.7816 -13.6083
upperneck -9.07145 -29.0676 36.1817
head 4.88261 -14.9591 10.7076
rclavicle -2.5842e-014 1.43125e-014
rhumerus 99.8707 -11.5062 -68.5629
rradius 77.0464
rwrist -53.1458
rhand 82.7324 323.136
rfingers 7.12502
rthumb 64.7441 -301.46
lclavicle -2.5842e-014 1.43125e-014
lhumerus -60.2306 -51.6357 124.843
lradius 78.4644
lwrist 4.88309
lhand -0.406034 -15.1556
lfingers 7.12502
lthumb 25.2014 13.2004
rfemur -6.37174 23.2463 23.4856
rtibia 2.01008
rfoot -13.0572 -22.2717
rtoes 1.73024
lfemur 8.64189 -55.8265 -16.6723
ltibia -3.59597
lfoot -53.9229 62.238
ltoes 27.3104
1529
root 0.150815 17.6816 9.83585 15.4228 -5.134 -9.10721
lowerback 3.53199 0.634675 3.35793
upperback -15.1476 1.23301 -0.34137
thorax -19.2721 0.00503438 -2.49922
lowerneck 2.26678 -20.9894 -13.4111
upperneck -8.70312 -29.3964 35.7007
head 4.97432 -15.0555 10.4135
rclavicle -8.74653e-015 1.11319e-014
rhumerus 99.7857 -11.4006 -68.6875
rradius 76.7056
rwrist -53.1623
rhand 83.0091 323.524
rfingers 7.12502
rthumb 64.5659 -300.694
lclavicle -8.74653e-015 1.11319e-014
lhumerus -60.1718 -51.5123 124.656
lradius 78.5983
lwrist 4.73374
lhand -0.509639 -15.0823
lfingers 7.12502
lthumb 25.1021 13.2877
rfemur -5.93296 23.2685 23.6221
rtibia 1.82446
rfoot -13.041 -22.5184
rtoes 1.41048
lfemur 8.93825 -55.5391 -16.8979
ltibia -3.66755
lfoot -53.0482 62.1307
ltoes 26.9684
